<svg xmlns="http://www.w3.org/2000/svg" width="156" height="215" viewBox="0 0 156 215" fill="none">
  <path fill-rule="evenodd" clip-rule="evenodd"
    d="M12.866 25.732C19.9717 25.732 25.732 19.9717 25.732 12.866C25.732 5.7603 19.9717 0 12.866 0C5.7603 0 0 5.7603 0 12.866C0 19.9717 5.7603 25.732 12.866 25.732ZM56.2886 25.732C63.3943 25.732 69.1546 19.9717 69.1546 12.866C69.1546 5.76033 63.3943 3.66211e-05 56.2886 3.66211e-05C49.183 3.66211e-05 43.4227 5.76033 43.4227 12.866C43.4227 19.9717 49.183 25.732 56.2886 25.732ZM112.577 12.866C112.577 19.9717 106.817 25.732 99.7113 25.732C92.6056 25.732 86.8453 19.9717 86.8453 12.866C86.8453 5.76033 92.6056 3.66211e-05 99.7113 3.66211e-05C106.817 3.66211e-05 112.577 5.76033 112.577 12.866ZM143.134 25.732C150.24 25.732 156 19.9717 156 12.866C156 5.76033 150.24 3.66211e-05 143.134 3.66211e-05C136.028 3.66211e-05 130.268 5.76033 130.268 12.866C130.268 19.9717 136.028 25.732 143.134 25.732ZM25.732 60.0413C25.732 67.147 19.9717 72.9073 12.866 72.9073C5.7603 72.9073 0 67.147 0 60.0413C0 52.9356 5.7603 47.1753 12.866 47.1753C19.9717 47.1753 25.732 52.9356 25.732 60.0413ZM56.2886 72.9073C63.3943 72.9073 69.1546 67.147 69.1546 60.0413C69.1546 52.9356 63.3943 47.1753 56.2886 47.1753C49.183 47.1753 43.4227 52.9356 43.4227 60.0413C43.4227 67.147 49.183 72.9073 56.2886 72.9073ZM112.577 60.0413C112.577 67.147 106.817 72.9073 99.7113 72.9073C92.6056 72.9073 86.8453 67.147 86.8453 60.0413C86.8453 52.9356 92.6056 47.1753 99.7113 47.1753C106.817 47.1753 112.577 52.9356 112.577 60.0413ZM143.134 72.9073C150.24 72.9073 156 67.147 156 60.0413C156 52.9356 150.24 47.1753 143.134 47.1753C136.028 47.1753 130.268 52.9356 130.268 60.0413C130.268 67.147 136.028 72.9073 143.134 72.9073ZM25.732 107.217C25.732 114.322 19.9717 120.083 12.866 120.083C5.7603 120.083 0 114.322 0 107.217C0 100.111 5.7603 94.3506 12.866 94.3506C19.9717 94.3506 25.732 100.111 25.732 107.217ZM56.2886 120.083C63.3943 120.083 69.1546 114.322 69.1546 107.217C69.1546 100.111 63.3943 94.3506 56.2886 94.3506C49.183 94.3506 43.4227 100.111 43.4227 107.217C43.4227 114.322 49.183 120.083 56.2886 120.083ZM112.577 107.217C112.577 114.322 106.817 120.083 99.7113 120.083C92.6056 120.083 86.8453 114.322 86.8453 107.217C86.8453 100.111 92.6056 94.3506 99.7113 94.3506C106.817 94.3506 112.577 100.111 112.577 107.217ZM143.134 120.083C150.24 120.083 156 114.322 156 107.217C156 100.111 150.24 94.3506 143.134 94.3506C136.028 94.3506 130.268 100.111 130.268 107.217C130.268 114.322 136.028 120.083 143.134 120.083ZM25.732 154.392C25.732 161.497 19.9717 167.258 12.866 167.258C5.7603 167.258 0 161.497 0 154.392C0 147.286 5.7603 141.526 12.866 141.526C19.9717 141.526 25.732 147.286 25.732 154.392ZM56.2886 167.258C63.3943 167.258 69.1546 161.498 69.1546 154.392C69.1546 147.286 63.3943 141.526 56.2886 141.526C49.183 141.526 43.4227 147.286 43.4227 154.392C43.4227 161.498 49.183 167.258 56.2886 167.258ZM112.577 154.392C112.577 161.498 106.817 167.258 99.7113 167.258C92.6056 167.258 86.8453 161.498 86.8453 154.392C86.8453 147.286 92.6056 141.526 99.7113 141.526C106.817 141.526 112.577 147.286 112.577 154.392ZM143.134 167.258C150.24 167.258 156 161.498 156 154.392C156 147.286 150.24 141.526 143.134 141.526C136.028 141.526 130.268 147.286 130.268 154.392C130.268 161.498 136.028 167.258 143.134 167.258ZM25.732 201.567C25.732 208.673 19.9717 214.433 12.866 214.433C5.7603 214.433 0 208.673 0 201.567C0 194.461 5.7603 188.701 12.866 188.701C19.9717 188.701 25.732 194.461 25.732 201.567ZM56.2886 214.433C63.3943 214.433 69.1546 208.673 69.1546 201.567C69.1546 194.461 63.3943 188.701 56.2886 188.701C49.183 188.701 43.4227 194.461 43.4227 201.567C43.4227 208.673 49.183 214.433 56.2886 214.433ZM112.577 201.567C112.577 208.673 106.817 214.433 99.7113 214.433C92.6056 214.433 86.8453 208.673 86.8453 201.567C86.8453 194.461 92.6056 188.701 99.7113 188.701C106.817 188.701 112.577 194.461 112.577 201.567ZM143.134 214.433C150.24 214.433 156 208.673 156 201.567C156 194.461 150.24 188.701 143.134 188.701C136.028 188.701 130.268 194.461 130.268 201.567C130.268 208.673 136.028 214.433 143.134 214.433Z"
    fill="#F7F7F7" />
</svg>