<svg width="139" height="56" viewBox="0 0 139 56" fill="none" xmlns="http://www.w3.org/2000/svg">
    <path opacity="0.15" d="M0.44 55.6L20.18 3.4H27.56L7.82 55.6H0.44ZM47.3366 46.72C45.4566 46.72 43.7366 46.36 42.1766 45.64C40.6566 44.92 39.3366 43.9 38.2166 42.58C37.1366 41.22 36.2966 39.58 35.6966 37.66C35.0966 35.74 34.7966 33.56 34.7966 31.12C34.7966 28.68 35.1566 26.5 35.8766 24.58C36.5966 22.66 37.5366 21.04 38.6966 19.72C39.8966 18.36 41.2566 17.32 42.7766 16.6C44.2966 15.88 45.8766 15.52 47.5166 15.52C49.1966 15.52 50.6166 15.8 51.7766 16.36C52.9366 16.88 54.0166 17.66 55.0166 18.7H55.2566L54.8366 14.08V3.94H63.6566V46H56.4566L55.7966 42.94H55.6166C54.4966 44.02 53.2166 44.92 51.7766 45.64C50.3366 46.36 48.8566 46.72 47.3366 46.72ZM49.6166 39.52C50.6166 39.52 51.5366 39.32 52.3766 38.92C53.2166 38.48 54.0366 37.76 54.8366 36.76V24.7C54.0366 23.98 53.2166 23.48 52.3766 23.2C51.5766 22.88 50.7366 22.72 49.8566 22.72C48.2166 22.72 46.7966 23.4 45.5966 24.76C44.4366 26.12 43.8566 28.2 43.8566 31C43.8566 33.96 44.3566 36.12 45.3566 37.48C46.3566 38.84 47.7766 39.52 49.6166 39.52ZM84.6331 46V23.14H72.6931V16.24H93.4531V46H84.6331ZM88.6531 11.56C86.9331 11.56 85.5131 11.08 84.3931 10.12C83.3131 9.16 82.7731 7.86 82.7731 6.22C82.7731 4.58 83.3131 3.26 84.3931 2.26C85.5131 1.22 86.9331 0.699997 88.6531 0.699997C90.3731 0.699997 91.7731 1.22 92.8531 2.26C93.9731 3.26 94.5331 4.58 94.5331 6.22C94.5331 7.86 93.9731 9.16 92.8531 10.12C91.7731 11.08 90.3731 11.56 88.6531 11.56ZM117.01 46L105.79 16.24H114.67L119.35 30.28C119.83 31.8 120.29 33.32 120.73 34.84C121.17 36.36 121.61 37.9 122.05 39.46H122.29C122.73 37.9 123.15 36.36 123.55 34.84C123.99 33.32 124.45 31.8 124.93 30.28L129.61 16.24H138.07L127.15 46H117.01Z" fill="white" />
</svg>