<svg width="697" height="154" viewBox="0 0 697 154" fill="none" xmlns="http://www.w3.org/2000/svg">
    <path d="M0.6 151V20.6H31.4L44.2 66.8L48.6 84.8H49.4L53.8 66.8L66.6 20.6H97.4V151H72.6V110.6C72.6 107 72.7333 102.467 73 97C73.2667 91.5333 73.6 85.9333 74 80.2C74.4 74.4667 74.8 68.9333 75.2 63.6C75.7333 58.1333 76.1333 53.6667 76.4 50.2H75.8L65.8 85L55.8 116.4H41.4L31.2 85L21.8 50.2H21.2C21.6 53.6667 22 58.1333 22.4 63.6C22.8 68.9333 23.2 74.4667 23.6 80.2C24 85.9333 24.3333 91.5333 24.6 97C24.8667 102.467 25 107 25 110.6V151H0.6ZM164.522 151V74.8H124.722V51.8H193.922V151H164.522ZM177.922 36.2C172.189 36.2 167.455 34.6 163.722 31.4C160.122 28.2 158.322 23.8667 158.322 18.4C158.322 12.9333 160.122 8.53332 163.722 5.19999C167.455 1.73332 172.189 -1.09673e-05 177.922 -1.09673e-05C183.655 -1.09673e-05 188.322 1.73332 191.922 5.19999C195.655 8.53332 197.522 12.9333 197.522 18.4C197.522 23.8667 195.655 28.2 191.922 31.4C188.322 34.6 183.655 36.2 177.922 36.2ZM252.044 151V51.8H276.044L278.444 73.4H279.044C283.977 65.2667 289.91 59.2667 296.844 55.4C303.777 51.4 311.244 49.4 319.244 49.4C323.644 49.4 327.177 49.7333 329.844 50.4C332.644 51.0667 335.51 52.0667 338.444 53.4L332.444 78C329.377 77.0667 326.577 76.4 324.044 76C321.644 75.4667 318.577 75.2 314.844 75.2C308.71 75.2 302.644 77 296.644 80.6C290.777 84.2 285.71 90.4667 281.444 99.4V151H252.044ZM408.766 153.4C402.232 153.4 395.899 152.267 389.766 150C383.766 147.6 378.366 144.2 373.566 139.8C368.899 135.4 365.166 130 362.366 123.6C359.566 117.067 358.166 109.667 358.166 101.4C358.166 93.1333 359.566 85.8 362.366 79.4C365.166 72.8667 368.899 67.4 373.566 63C378.366 58.6 383.766 55.2667 389.766 53C395.899 50.6 402.232 49.4 408.766 49.4C415.299 49.4 421.566 50.6 427.566 53C433.699 55.2667 439.099 58.6 443.766 63C448.566 67.4 452.366 72.8667 455.166 79.4C457.966 85.8 459.366 93.1333 459.366 101.4C459.366 109.667 457.966 117.067 455.166 123.6C452.366 130 448.566 135.4 443.766 139.8C439.099 144.2 433.699 147.6 427.566 150C421.566 152.267 415.299 153.4 408.766 153.4ZM408.766 129.6C415.566 129.6 420.632 127.067 423.966 122C427.432 116.933 429.166 110.067 429.166 101.4C429.166 92.7333 427.432 85.8667 423.966 80.8C420.632 75.7333 415.566 73.2 408.766 73.2C401.966 73.2 396.832 75.7333 393.366 80.8C390.032 85.8667 388.366 92.7333 388.366 101.4C388.366 110.067 390.032 116.933 393.366 122C396.832 127.067 401.966 129.6 408.766 129.6ZM527.888 153.4C518.954 153.4 510.221 151.933 501.688 149C493.154 146.067 485.688 142.467 479.288 138.2L491.888 119.8C498.021 123.667 504.421 126.6 511.088 128.6C517.754 130.6 524.688 131.6 531.888 131.6C537.354 131.6 541.354 130.8 543.888 129.2C546.421 127.6 547.688 125.6 547.688 123.2C547.688 121.867 547.288 120.667 546.488 119.6C545.821 118.533 544.554 117.6 542.688 116.8C540.954 115.867 538.488 115 535.288 114.2C532.088 113.4 528.088 112.467 523.288 111.4C509.821 108.467 500.154 104.533 494.288 99.6C488.421 94.5333 485.488 88.1333 485.488 80.4C485.488 75.8667 486.554 71.6667 488.688 67.8C490.821 63.9333 493.821 60.6667 497.688 58C501.688 55.3333 506.488 53.2667 512.088 51.8C517.688 50.2 524.021 49.4 531.088 49.4C540.021 49.4 548.088 50.8667 555.288 53.8C562.621 56.6 568.888 59.6667 574.088 63L560.888 80.6C555.821 77.5333 550.554 75.2 545.088 73.6C539.621 72 534.088 71.2 528.488 71.2C523.821 71.2 520.354 71.9333 518.088 73.4C515.821 74.8667 514.688 76.7333 514.688 79C514.688 81.8 516.421 83.8 519.888 85C523.354 86.2 529.288 87.7333 537.688 89.6C545.288 91.3333 551.621 93.2 556.688 95.2C561.754 97.2 565.754 99.4667 568.688 102C571.621 104.533 573.688 107.4 574.888 110.6C576.088 113.8 576.688 117.4 576.688 121.4C576.688 125.933 575.621 130.133 573.488 134C571.354 137.867 568.221 141.267 564.088 144.2C560.088 147 555.021 149.267 548.888 151C542.888 152.6 535.888 153.4 527.888 153.4ZM603.009 151V10.8H632.409V45.2L630.809 64.2H631.409C635.143 60.3333 639.676 56.9333 645.009 54C650.343 50.9333 656.809 49.4 664.409 49.4C675.609 49.4 683.743 53 688.809 60.2C694.009 67.4 696.609 77.2667 696.609 89.8V151H667.209V93.6C667.209 86.9333 666.143 82.0667 664.009 79C661.876 75.9333 658.076 74.4 652.609 74.4C648.609 74.4 645.076 75.2667 642.009 77C639.076 78.7333 635.876 81.3333 632.409 84.8V151H603.009Z" fill="#F8F8F8" />
</svg>