<svg width="275" height="58" viewBox="0 0 275 58" fill="none" xmlns="http://www.w3.org/2000/svg">
    <path opacity="0.15" d="M24.12 44.14L0.96 29.14V23.02L24.12 8.02V16L8.22 25.96V26.2L24.12 36.16V44.14ZM47.7366 46.72C45.0566 46.72 42.4366 46.28 39.8766 45.4C37.3166 44.52 35.0766 43.44 33.1566 42.16L36.9366 36.64C38.7766 37.8 40.6966 38.68 42.6966 39.28C44.6966 39.88 46.7766 40.18 48.9366 40.18C50.5766 40.18 51.7766 39.94 52.5366 39.46C53.2966 38.98 53.6766 38.38 53.6766 37.66C53.6766 37.26 53.5566 36.9 53.3166 36.58C53.1166 36.26 52.7366 35.98 52.1766 35.74C51.6566 35.46 50.9166 35.2 49.9566 34.96C48.9966 34.72 47.7966 34.44 46.3566 34.12C42.3166 33.24 39.4166 32.06 37.6566 30.58C35.8966 29.06 35.0166 27.14 35.0166 24.82C35.0166 23.46 35.3366 22.2 35.9766 21.04C36.6166 19.88 37.5166 18.9 38.6766 18.1C39.8766 17.3 41.3166 16.68 42.9966 16.24C44.6766 15.76 46.5766 15.52 48.6966 15.52C51.3766 15.52 53.7966 15.96 55.9566 16.84C58.1566 17.68 60.0366 18.6 61.5966 19.6L57.6366 24.88C56.1166 23.96 54.5366 23.26 52.8966 22.78C51.2566 22.3 49.5966 22.06 47.9166 22.06C46.5166 22.06 45.4766 22.28 44.7966 22.72C44.1166 23.16 43.7766 23.72 43.7766 24.4C43.7766 25.24 44.2966 25.84 45.3366 26.2C46.3766 26.56 48.1566 27.02 50.6766 27.58C52.9566 28.1 54.8566 28.66 56.3766 29.26C57.8966 29.86 59.0966 30.54 59.9766 31.3C60.8566 32.06 61.4766 32.92 61.8366 33.88C62.1966 34.84 62.3766 35.92 62.3766 37.12C62.3766 38.48 62.0566 39.74 61.4166 40.9C60.7766 42.06 59.8366 43.08 58.5966 43.96C57.3966 44.8 55.8766 45.48 54.0366 46C52.2366 46.48 50.1366 46.72 47.7366 46.72ZM86.5331 46.72C84.1731 46.72 81.9931 46.38 79.9931 45.7C77.9931 44.98 76.2331 43.96 74.7131 42.64C73.2331 41.32 72.0731 39.7 71.2331 37.78C70.3931 35.82 69.9731 33.6 69.9731 31.12C69.9731 28.64 70.4331 26.44 71.3531 24.52C72.3131 22.56 73.5731 20.92 75.1331 19.6C76.7331 18.28 78.5731 17.28 80.6531 16.6C82.7331 15.88 84.9131 15.52 87.1931 15.52C89.5531 15.52 91.6731 15.9 93.5531 16.66C95.4731 17.42 97.0731 18.38 98.3531 19.54L94.2731 25C92.0731 23.44 89.8731 22.66 87.6731 22.66C85.1131 22.66 83.0331 23.42 81.4331 24.94C79.8331 26.46 79.0331 28.52 79.0331 31.12C79.0331 33.72 79.7931 35.78 81.3131 37.3C82.8731 38.82 84.8931 39.58 87.3731 39.58C88.9331 39.58 90.3531 39.3 91.6331 38.74C92.9531 38.18 94.1531 37.52 95.2331 36.76L98.7731 42.34C96.9731 43.86 94.9931 44.98 92.8331 45.7C90.6731 46.38 88.5731 46.72 86.5331 46.72ZM108.89 46V16.24H116.09L116.81 22.72H116.99C118.47 20.28 120.25 18.48 122.33 17.32C124.41 16.12 126.65 15.52 129.05 15.52C130.37 15.52 131.43 15.62 132.23 15.82C133.07 16.02 133.93 16.32 134.81 16.72L133.01 24.1C132.09 23.82 131.25 23.62 130.49 23.5C129.77 23.34 128.85 23.26 127.73 23.26C125.89 23.26 124.07 23.8 122.27 24.88C120.51 25.96 118.99 27.84 117.71 30.52V46H108.89ZM154.586 46V23.14H142.646V16.24H163.406V46H154.586ZM158.606 11.56C156.886 11.56 155.466 11.08 154.346 10.12C153.266 9.16 152.726 7.86 152.726 6.22C152.726 4.58 153.266 3.26 154.346 2.26C155.466 1.22 156.886 0.699997 158.606 0.699997C160.326 0.699997 161.726 1.22 162.806 2.26C163.926 3.26 164.486 4.58 164.486 6.22C164.486 7.86 163.926 9.16 162.806 10.12C161.726 11.08 160.326 11.56 158.606 11.56ZM178.203 57.04V16.24H185.403L186.063 19.24H186.243C187.443 18.16 188.823 17.28 190.383 16.6C191.943 15.88 193.523 15.52 195.123 15.52C196.963 15.52 198.623 15.88 200.103 16.6C201.583 17.32 202.843 18.34 203.883 19.66C204.923 20.98 205.703 22.58 206.223 24.46C206.783 26.3 207.063 28.36 207.063 30.64C207.063 33.2 206.703 35.48 205.983 37.48C205.263 39.44 204.303 41.12 203.103 42.52C201.903 43.88 200.523 44.92 198.963 45.64C197.443 46.36 195.843 46.72 194.163 46.72C191.443 46.72 189.003 45.64 186.843 43.48H186.603L187.023 48.34V57.04H178.203ZM192.123 39.52C193.803 39.52 195.203 38.84 196.323 37.48C197.443 36.08 198.003 33.84 198.003 30.76C198.003 25.4 196.183 22.72 192.543 22.72C190.663 22.72 188.823 23.64 187.023 25.48V37.54C187.863 38.26 188.723 38.78 189.603 39.1C190.523 39.38 191.363 39.52 192.123 39.52ZM233.139 46.72C230.779 46.72 228.779 46.4 227.139 45.76C225.499 45.12 224.159 44.24 223.119 43.12C222.119 41.96 221.399 40.58 220.959 38.98C220.519 37.38 220.299 35.6 220.299 33.64V23.14H212.799V16.6L220.719 16.24L221.859 7.12H229.119V16.24H241.719V23.14H229.119V33.58C229.119 35.86 229.619 37.48 230.619 38.44C231.619 39.36 233.219 39.82 235.419 39.82C236.539 39.82 237.559 39.72 238.479 39.52C239.439 39.32 240.379 39.06 241.299 38.74L242.859 45.1C241.539 45.5 240.079 45.86 238.479 46.18C236.919 46.54 235.139 46.72 233.139 46.72ZM251.716 44.14V36.16L267.616 26.2V25.96L251.716 16V8.02L274.876 23.02V29.14L251.716 44.14Z" fill="white" />
</svg>