<svg width="171" height="50" viewBox="0 0 171 50" fill="none" xmlns="http://www.w3.org/2000/svg">
    <path opacity="0.15" d="M24.12 36.14L0.96 21.14V15.02L24.12 0.019999V8L8.22 17.96V18.2L24.12 28.16V36.14ZM47.7366 38.72C45.0566 38.72 42.4366 38.28 39.8766 37.4C37.3166 36.52 35.0766 35.44 33.1566 34.16L36.9366 28.64C38.7766 29.8 40.6966 30.68 42.6966 31.28C44.6966 31.88 46.7766 32.18 48.9366 32.18C50.5766 32.18 51.7766 31.94 52.5366 31.46C53.2966 30.98 53.6766 30.38 53.6766 29.66C53.6766 29.26 53.5566 28.9 53.3166 28.58C53.1166 28.26 52.7366 27.98 52.1766 27.74C51.6566 27.46 50.9166 27.2 49.9566 26.96C48.9966 26.72 47.7966 26.44 46.3566 26.12C42.3166 25.24 39.4166 24.06 37.6566 22.58C35.8966 21.06 35.0166 19.14 35.0166 16.82C35.0166 15.46 35.3366 14.2 35.9766 13.04C36.6166 11.88 37.5166 10.9 38.6766 10.1C39.8766 9.3 41.3166 8.68 42.9966 8.24C44.6766 7.76 46.5766 7.52 48.6966 7.52C51.3766 7.52 53.7966 7.96 55.9566 8.84C58.1566 9.68 60.0366 10.6 61.5966 11.6L57.6366 16.88C56.1166 15.96 54.5366 15.26 52.8966 14.78C51.2566 14.3 49.5966 14.06 47.9166 14.06C46.5166 14.06 45.4766 14.28 44.7966 14.72C44.1166 15.16 43.7766 15.72 43.7766 16.4C43.7766 17.24 44.2966 17.84 45.3366 18.2C46.3766 18.56 48.1566 19.02 50.6766 19.58C52.9566 20.1 54.8566 20.66 56.3766 21.26C57.8966 21.86 59.0966 22.54 59.9766 23.3C60.8566 24.06 61.4766 24.92 61.8366 25.88C62.1966 26.84 62.3766 27.92 62.3766 29.12C62.3766 30.48 62.0566 31.74 61.4166 32.9C60.7766 34.06 59.8366 35.08 58.5966 35.96C57.3966 36.8 55.8766 37.48 54.0366 38C52.2366 38.48 50.1366 38.72 47.7366 38.72ZM70.2731 49.04V8.24H77.4731L78.1331 11.24H78.3131C79.5131 10.16 80.8931 9.28 82.4531 8.6C84.0131 7.88 85.5931 7.52 87.1931 7.52C89.0331 7.52 90.6931 7.88 92.1731 8.6C93.6531 9.32 94.9131 10.34 95.9531 11.66C96.9931 12.98 97.7731 14.58 98.2931 16.46C98.8531 18.3 99.1331 20.36 99.1331 22.64C99.1331 25.2 98.7731 27.48 98.0531 29.48C97.3331 31.44 96.3731 33.12 95.1731 34.52C93.9731 35.88 92.5931 36.92 91.0331 37.64C89.5131 38.36 87.9131 38.72 86.2331 38.72C83.5131 38.72 81.0731 37.64 78.9131 35.48H78.6731L79.0931 40.34V49.04H70.2731ZM84.1931 31.52C85.8731 31.52 87.2731 30.84 88.3931 29.48C89.5131 28.08 90.0731 25.84 90.0731 22.76C90.0731 17.4 88.2531 14.72 84.6131 14.72C82.7331 14.72 80.8931 15.64 79.0931 17.48V29.54C79.9331 30.26 80.7931 30.78 81.6731 31.1C82.5931 31.38 83.4331 31.52 84.1931 31.52ZM115.37 38.72C113.85 38.72 112.49 38.48 111.29 38C110.09 37.56 109.07 36.94 108.23 36.14C107.39 35.3 106.73 34.34 106.25 33.26C105.81 32.18 105.59 31 105.59 29.72C105.59 28.04 105.95 26.58 106.67 25.34C107.39 24.06 108.53 22.98 110.09 22.1C111.69 21.22 113.73 20.52 116.21 20C118.69 19.44 121.69 19.06 125.21 18.86C125.05 17.5 124.45 16.44 123.41 15.68C122.41 14.92 120.89 14.54 118.85 14.54C117.41 14.54 115.95 14.8 114.47 15.32C113.03 15.8 111.47 16.46 109.79 17.3L106.67 11.54C108.71 10.38 110.89 9.42 113.21 8.66C115.57 7.9 118.03 7.52 120.59 7.52C124.75 7.52 128.03 8.62 130.43 10.82C132.83 13.02 134.03 16.4 134.03 20.96V38H126.83L126.17 34.64H125.93C124.41 35.8 122.75 36.78 120.95 37.58C119.15 38.34 117.29 38.72 115.37 38.72ZM118.19 31.88C119.51 31.88 120.75 31.62 121.91 31.1C123.07 30.54 124.17 29.86 125.21 29.06V24.14C123.01 24.26 121.19 24.46 119.75 24.74C118.31 25.02 117.17 25.38 116.33 25.82C115.49 26.22 114.89 26.7 114.53 27.26C114.21 27.82 114.05 28.42 114.05 29.06C114.05 30.02 114.41 30.74 115.13 31.22C115.89 31.66 116.91 31.88 118.19 31.88ZM142.226 38V8.24H149.426L150.086 12.2H150.326C151.606 10.92 153.066 9.82 154.706 8.9C156.386 7.98 158.346 7.52 160.586 7.52C163.946 7.52 166.406 8.6 167.966 10.76C169.526 12.92 170.306 15.88 170.306 19.64V38H161.486V20.78C161.486 18.78 161.166 17.32 160.526 16.4C159.886 15.48 158.746 15.02 157.106 15.02C155.906 15.02 154.846 15.28 153.926 15.8C153.046 16.32 152.086 17.1 151.046 18.14V38H142.226Z" fill="white" />
</svg>